<svg xmlns="http://www.w3.org/2000/svg" viewBox="0 0 1160 512" width="1160" height="512" role="img" aria-labelledby="ci-providers-title ci-providers-desc" class="magus-diagram"><metadata>{"figure":"ci-providers","stamp":"sha256:ec443e26f620a4b38c591f02015a768a3e3f4e36011823f4183d2269f475eb8b"}</metadata><title id="ci-providers-title">Vendor syntax lives in the spell, never in the binary</title><desc id="ci-providers-desc">A failing project reaches the annotator contract, which speaks generic verbs to a provider spell; the spell translates them into the CI system's own syntax. Quote prefixes are declared once and applied per line in Go.</desc><defs><marker id="ci-providers-arrow-default" markerWidth="8" markerHeight="6" refX="7" refY="3" orient="auto"><polygon points="0 0, 8 3, 0 6" fill="#bfc0c0"/></marker><marker id="ci-providers-arrow-accent" markerWidth="8" markerHeight="6" refX="7" refY="3" orient="auto"><polygon points="0 0, 8 3, 0 6" fill="#f08a59"/></marker><marker id="ci-providers-arrow-link" markerWidth="8" markerHeight="6" refX="7" refY="3" orient="auto"><polygon points="0 0, 8 3, 0 6" fill="#6a95d8"/></marker></defs><rect width="100%" height="100%" fill="#2d3142"/><text x="32" y="32" fill="#a9b1c2" font-size="8" font-family="var(--pico-font-family-monospace, monospace)" style="font-variant-ligatures:none" letter-spacing="0.18em">CI PROVIDERS</text><text x="32" y="60" fill="#f5f5f5" font-size="20" font-weight="600" font-family="var(--pico-font-family, sans-serif)">Vendor syntax lives in the spell, never in the binary</text><g transform="translate(0,40)"><rect x="16" y="64" width="536" height="184" rx="8" fill="#f5f5f5" fill-opacity="0.02" stroke="#f5f5f5" stroke-opacity="0.1" stroke-width="0.8"/><rect x="182" y="68" width="204" height="12" rx="2" fill="#2d3142"/><text x="284" y="77" fill="#a9b1c2" font-size="7" font-family="var(--pico-font-family-monospace, monospace)" style="font-variant-ligatures:none" text-anchor="middle" letter-spacing="0.14em">MAGUS BINARY, NAMES NO CI SYSTEM</text><rect x="16" y="272" width="824" height="104" rx="8" fill="#f5f5f5" fill-opacity="0.02" stroke="#f5f5f5" stroke-opacity="0.1" stroke-width="0.8"/><rect x="354" y="276" width="148" height="12" rx="2" fill="#2d3142"/><text x="428" y="285" fill="#a9b1c2" font-size="7" font-family="var(--pico-font-family-monospace, monospace)" style="font-variant-ligatures:none" text-anchor="middle" letter-spacing="0.14em">PROVIDER SPELL, IN BUZZ</text><path data-edge="external:run and cache->internal/ci/annotate" id="ci-providers-edge-external_3arun_20and_20cache-internal_2fci_2fannotate" d="M 248 124 L 320 124" fill="none" stroke="#bfc0c0" stroke-width="1.2" marker-end="url(#ci-providers-arrow-default)"/><path data-edge="internal/ci/annotate->external:Provider ops" id="ci-providers-edge-internal_2fci_2fannotate-external_3aProvider_20ops" d="M 536 124 L 564 124 Q 572 124 572 132 L 572 324 Q 572 332 580 332 L 608 332" fill="none" stroke="#bfc0c0" stroke-width="1.2" marker-end="url(#ci-providers-arrow-default)"/><path data-edge="internal/ci->external:CI system" id="ci-providers-edge-internal_2fci-external_3aCI_20system" d="M 536 204 L 564 204 A 8 8 0 0 1 580 204 L 852 204 Q 860 204 860 212 L 860 252 Q 860 260 868 260 L 896 260" fill="none" stroke="#bfc0c0" stroke-width="1.2" marker-end="url(#ci-providers-arrow-default)"/><path data-edge="external:Provider ops->external:CI system" id="ci-providers-edge-external_3aProvider_20ops-external_3aCI_20system" d="M 824 332 L 852 332 Q 860 332 860 324 L 860 284 Q 860 276 868 276 L 896 276" fill="none" stroke="#bfc0c0" stroke-width="1.2" marker-end="url(#ci-providers-arrow-default)"/><path data-edge="external:quote_prefixes->internal/ci" id="ci-providers-edge-external_3aquote_prefixes-internal_2fci" d="M 248 332 L 276 332 Q 284 332 284 324 L 284 212 Q 284 204 292 204 L 320 204" fill="none" stroke="#bfc0c0" stroke-width="1.2" stroke-dasharray="5,4" marker-end="url(#ci-providers-arrow-default)"/><rect x="582" y="220" width="76" height="12" rx="2" fill="#2d3142"/><text x="620" y="229" fill="#a9b1c2" font-size="8" font-family="var(--pico-font-family-monospace, monospace)" style="font-variant-ligatures:none" text-anchor="middle" letter-spacing="0.06em">GENERIC VERBS</text><rect x="668" y="182" width="56" height="12" rx="2" fill="#2d3142"/><text x="696" y="191" fill="#a9b1c2" font-size="8" font-family="var(--pico-font-family-monospace, monospace)" style="font-variant-ligatures:none" text-anchor="middle" letter-spacing="0.06em">DE-FANGED</text><rect x="870" y="304" width="76" height="12" rx="2" fill="#2d3142"/><text x="908" y="313" fill="#a9b1c2" font-size="8" font-family="var(--pico-font-family-monospace, monospace)" style="font-variant-ligatures:none" text-anchor="middle" letter-spacing="0.06em">VENDOR SYNTAX</text><rect x="256" y="182" width="56" height="12" rx="2" fill="#2d3142"/><text x="284" y="191" fill="#a9b1c2" font-size="8" font-family="var(--pico-font-family-monospace, monospace)" style="font-variant-ligatures:none" text-anchor="middle" letter-spacing="0.06em">READ ONCE</text><g data-node="external:run and cache"><rect x="32" y="96" width="216" height="56" rx="6" fill="#2d3142"/><rect x="32" y="96" width="216" height="56" rx="6" fill="#393e53" stroke="#505466" stroke-width="1.2"/><text x="140" y="124" fill="#f5f5f5" font-size="12" font-weight="600" font-family="var(--pico-font-family, sans-serif)" text-anchor="middle">run and cache</text><text x="140" y="140" fill="#a9b1c2" font-size="9" font-family="var(--pico-font-family-monospace, monospace)" style="font-variant-ligatures:none" text-anchor="middle">a project failed</text></g><g data-node="internal/ci/annotate" data-anchor="internal/ci/annotate"><rect x="320" y="96" width="216" height="56" rx="6" fill="#2d3142"/><rect x="320" y="96" width="216" height="56" rx="6" fill="#393e53" stroke="#505466" stroke-width="1.2"/><text x="428" y="124" fill="#f5f5f5" font-size="12" font-weight="600" font-family="var(--pico-font-family, sans-serif)" text-anchor="middle">Annotator contract</text><text x="428" y="140" fill="#a9b1c2" font-size="9" font-family="var(--pico-font-family-monospace, monospace)" style="font-variant-ligatures:none" text-anchor="middle">internal/ci/annotate</text></g><g data-node="internal/ci" data-anchor="internal/ci"><rect x="320" y="176" width="216" height="56" rx="6" fill="#2d3142"/><rect x="320" y="176" width="216" height="56" rx="6" fill="#393e53" stroke="#505466" stroke-width="1.2"/><text x="428" y="204" fill="#f5f5f5" font-size="12" font-weight="600" font-family="var(--pico-font-family, sans-serif)" text-anchor="middle">QuoteWith</text><text x="428" y="220" fill="#a9b1c2" font-size="9" font-family="var(--pico-font-family-monospace, monospace)" style="font-variant-ligatures:none" text-anchor="middle">per line, in Go</text></g><g data-node="external:Provider ops"><rect x="608" y="304" width="216" height="56" rx="6" fill="#2d3142"/><rect x="608" y="304" width="216" height="56" rx="6" fill="#393e53" stroke="#505466" stroke-width="1.2"/><text x="716" y="332" fill="#f5f5f5" font-size="12" font-weight="600" font-family="var(--pico-font-family, sans-serif)" text-anchor="middle">Provider ops</text><text x="716" y="348" fill="#a9b1c2" font-size="9" font-family="var(--pico-font-family-monospace, monospace)" style="font-variant-ligatures:none" text-anchor="middle">group start, end, annotate</text></g><g data-node="external:quote_prefixes"><rect x="32" y="304" width="216" height="56" rx="6" fill="#2d3142"/><rect x="32" y="304" width="216" height="56" rx="6" fill="#393e53" stroke="#505466" stroke-width="1.2"/><text x="140" y="332" fill="#f5f5f5" font-size="12" font-weight="600" font-family="var(--pico-font-family, sans-serif)" text-anchor="middle">quote_prefixes</text><text x="140" y="348" fill="#a9b1c2" font-size="9" font-family="var(--pico-font-family-monospace, monospace)" style="font-variant-ligatures:none" text-anchor="middle">declared once</text></g><g data-node="external:CI system"><rect x="896" y="240" width="216" height="56" rx="6" fill="#2d3142"/><rect x="896" y="240" width="216" height="56" rx="6" fill="#2d3142" stroke="#a9b1c2" stroke-width="1.2"/><text x="1004" y="268" fill="#f5f5f5" font-size="12" font-weight="600" font-family="var(--pico-font-family, sans-serif)" text-anchor="middle">CI system</text><text x="1004" y="284" fill="#a9b1c2" font-size="9" font-family="var(--pico-font-family-monospace, monospace)" style="font-variant-ligatures:none" text-anchor="middle">job log, pull request</text></g><line x1="32" y1="412" x2="1128" y2="412" stroke="#505466" stroke-width="0.8"/><text x="32" y="426" fill="#bfc0c0" font-size="8" font-family="var(--pico-font-family-monospace, monospace)" style="font-variant-ligatures:none" letter-spacing="0.06em">LEGEND</text><rect x="32" y="432" width="10" height="10" rx="2" fill="#2d3142" stroke="#a9b1c2" stroke-width="0.8"/><text x="50" y="441" fill="#a9b1c2" font-size="8" font-family="var(--pico-font-family-monospace, monospace)" style="font-variant-ligatures:none" letter-spacing="0.06em">OUTSIDE MAGUS</text></g></svg>